<svg viewBox="0 0 512 512" fill="none" xmlns="http://www.w3.org/2000/svg">
<defs>
<linearGradient id="head-gradient" x1="50%" y1="0%" x2="50%" y2="100%">
<stop offset="0%" stop-color="#4ade80"/>
<stop offset="100%" stop-color="#16a34a"/>
</linearGradient>
</defs>
<path d="M452.411 71.9932C443.433 63.0153 432 58.6264 418.17 58.6264H93.8301C79.9999 58.6264 68.5668 63.0153 59.5889 71.9932C50.611 80.9712 46.1221 92.4042 46.1221 106.234V292.059C46.1221 305.889 50.611 317.322 59.5889 326.3C68.5668 335.278 79.9999 339.667 93.8301 339.667H221.57V385.545H164.717V422.441H347.283V385.545H290.43V339.667H418.17C432 339.667 443.433 335.278 452.411 326.3C461.389 317.322 465.878 305.889 465.878 292.059V106.234C465.878 92.4042 461.389 80.9712 452.411 71.9932Z" fill="#3B82F6"/>
<path d="M256 164.673C271.748 164.673 284.673 151.748 284.673 135.999C284.673 120.251 271.748 107.326 256 107.326C240.252 107.326 227.327 120.251 227.327 135.999C227.327 151.748 240.252 164.673 256 164.673Z" fill="url(#head-gradient)"/>
<path d="M225.275 232.34L229.079 245.201C238.33 239.524 249.091 237.189 259.852 238.489L256.048 277.724H214.385C201.23 277.724 191.709 281.854 185.823 290.114C179.936 298.374 180.701 307.283 188.144 316.842L256.048 379.869L323.952 316.842C331.395 307.283 332.16 298.374 326.273 290.114C320.387 281.854 310.866 277.724 297.711 277.724H256.048L267.042 222.842C250.778 221.731 236.855 224.897 225.275 232.34Z" fill="#1D4ED8"/>
<path d="M188.144 316.842C195.913 326.974 206.863 332.88 221.57 332.88H290.43C305.137 332.88 316.087 326.974 323.952 316.842C332.16 307.283 331.395 298.374 326.273 290.114C320.387 281.854 310.866 277.724 297.711 277.724H214.385C201.23 277.724 191.709 281.854 185.823 290.114C179.936 298.374 180.701 307.283 188.144 316.842Z" fill="#3B82F6"/>
<path d="M229.079 245.201C238.33 239.524 249.091 237.189 259.852 238.489L256.048 277.724H297.711C310.866 277.724 320.387 281.854 326.273 290.114C332.16 298.374 331.395 307.283 323.952 316.842L256.048 379.869V332.88H221.57C206.863 332.88 195.913 326.974 188.144 316.842C180.701 307.283 179.936 298.374 185.823 290.114C191.709 281.854 201.23 277.724 214.385 277.724H256.048L229.079 245.201Z" fill="#60A5FA"/>
<path d="M330.43 280.906L267.042 222.842L256.048 277.724H297.711C310.866 277.724 320.387 281.854 326.273 290.114C332.16 298.374 331.395 307.283 323.952 316.842L256.048 379.869L323.952 316.842C331.395 307.283 332.16 298.374 326.273 290.114C320.387 281.854 310.866 277.724 297.711 277.724H256.048L330.43 280.906Z" fill="#1D4ED8"/>
<path d="M181.603 280.906L246.923 230.134L229.079 245.201L256.048 277.724H214.385C201.23 277.724 191.709 281.854 185.823 290.114C179.936 298.374 180.701 307.283 188.144 316.842L256.048 379.869L188.144 316.842C180.701 307.283 179.936 298.374 185.823 290.114C191.709 281.854 201.23 277.724 214.385 277.724H256.048L181.603 280.906Z" fill="#1D4ED8"/>
</svg>